<svg width="20" height="16" viewBox="0 0 20 16" fill="none" xmlns="http://www.w3.org/2000/svg">
<path d="M19.3286 1.86423C18.5682 2.1913 17.8076 2.39556 17.0475 2.4776C17.906 1.96251 18.4867 1.23483 18.7892 0.294596C18.0039 0.760546 17.166 1.07933 16.2749 1.25111C15.4899 0.417151 14.5253 0 13.3804 0C12.2849 0 11.3508 0.386265 10.5779 1.15897C9.80535 1.93163 9.41904 2.86567 9.41904 3.96124C9.41904 4.25553 9.45169 4.55816 9.51715 4.86882C7.89821 4.78708 6.37952 4.38032 4.96084 3.64856C3.54224 2.91671 2.3383 1.94168 1.34901 0.723474C0.989246 1.33655 0.809301 2.00302 0.809301 2.7225C0.809301 3.40113 0.968713 4.03078 1.28775 4.6113C1.60657 5.19173 2.03593 5.6618 2.57559 6.02161C1.93773 5.99704 1.34089 5.82938 0.784988 5.51867V5.56773C0.784988 6.52441 1.08547 7.36434 1.68635 8.08816C2.28731 8.81189 3.04571 9.26745 3.96137 9.4556C3.61793 9.54542 3.27037 9.59039 2.91885 9.59039C2.6899 9.59039 2.44049 9.56999 2.17072 9.52939C2.42417 10.3223 2.89025 10.9742 3.56879 11.4854C4.24746 11.9964 5.01604 12.2598 5.87457 12.2766C4.43561 13.4047 2.7963 13.9688 0.956642 13.9688C0.605 13.9688 0.286219 13.9528 0 13.9199C1.8397 15.1053 3.86738 15.698 6.08316 15.698C7.48947 15.698 8.80996 15.4754 10.0442 15.0297C11.279 14.5843 12.3336 13.9873 13.2086 13.239C14.0833 12.4909 14.8377 11.6304 15.4713 10.6575C16.1049 9.68447 16.5769 8.66867 16.8879 7.60988C17.1984 6.55087 17.3538 5.49023 17.3538 4.42715C17.3538 4.19819 17.3497 4.02657 17.3415 3.91205C18.1185 3.34816 18.7807 2.66532 19.3286 1.86423Z" fill="#9E9E9E"/>
</svg>
