<svg width="21" height="13" viewBox="0 0 21 13" fill="none" xmlns="http://www.w3.org/2000/svg">
<path d="M20.8627 0.279755H16.8156H16.6783V0.417092V0.857168V0.994506H16.8156H17.0969C17.424 0.994506 17.7189 1.16238 17.886 1.4436C18.053 1.72482 18.0593 2.06414 17.9028 2.35136L13.4027 10.6114L11.3532 5.72552L13.2837 2.18303C13.6832 1.44992 14.45 0.994506 15.2849 0.994506H15.3761H15.5134V0.857168V0.417092V0.279755H15.3761H11.329H11.1917V0.417092V0.857168V0.994506H11.329H11.6102C11.9373 0.994506 12.2323 1.16238 12.3993 1.4436C12.5663 1.72482 12.5726 2.06414 12.4162 2.35136L11.0159 4.92154L9.76801 1.94662C9.67755 1.731 9.69994 1.49561 9.8294 1.30091C9.95887 1.10621 10.1673 0.994506 10.4011 0.994506H10.721H10.8583V0.857168V0.417092V0.279755H10.721H5.8808H5.74347V0.417092V0.857168V0.994506H5.8808H5.94737C6.90218 0.994506 7.75775 1.56345 8.12715 2.44392L9.971 6.83956L7.9161 10.6114L4.28141 1.94662C4.19095 1.731 4.21334 1.49561 4.3428 1.30091C4.47227 1.10621 4.68065 0.994506 4.91449 0.994506H5.40603H5.54337V0.857168V0.417092V0.279755H5.40603H0.137338H0V0.417092V0.857168V0.994506H0.137338H0.460723C1.41554 0.994506 2.27116 1.56345 2.6405 2.44392L6.83049 12.4325C6.90379 12.6072 7.07372 12.7201 7.26347 12.7201C7.43762 12.7201 7.59139 12.6287 7.67485 12.4755L8.22141 11.4725L10.3081 7.64321L12.3171 12.4325C12.3904 12.6072 12.5603 12.7201 12.7501 12.7201C12.9242 12.7201 13.078 12.6286 13.1614 12.4754L13.708 11.4724L18.7703 2.18294C19.1698 1.44983 19.9366 0.994415 20.7715 0.994415H20.8627H21V0.857077V0.417001V0.279663H20.8627V0.279755Z" fill="#9E9E9E"/>
</svg>
