<svg width="31" height="8" viewBox="0 0 31 8" fill="none" xmlns="http://www.w3.org/2000/svg">
<path d="M7.19141 5.31348L8.16211 0.603516H10.0693L8.18262 8H6.52832L5.12695 3.34473L3.72559 8H2.07812L0.191406 0.603516H2.09863L3.0625 5.30664L4.41602 0.603516H5.84473L7.19141 5.31348ZM17.4863 5.31348L18.457 0.603516H20.3643L18.4775 8H16.8232L15.4219 3.34473L14.0205 8H12.373L10.4863 0.603516H12.3936L13.3574 5.30664L14.7109 0.603516H16.1396L17.4863 5.31348ZM27.7812 5.31348L28.752 0.603516H30.6592L28.7725 8H27.1182L25.7168 3.34473L24.3154 8H22.668L20.7812 0.603516H22.6885L23.6523 5.30664L25.0059 0.603516H26.4346L27.7812 5.31348Z" fill="#9E9E9E"/>
</svg>
