<svg width="22" height="16" viewBox="0 0 22 16" fill="none" xmlns="http://www.w3.org/2000/svg">
<path d="M20.8768 2.67223C20.6391 1.75905 19.9424 1.0392 19.059 0.793309C17.445 0.336914 10.989 0.336914 10.989 0.336914C10.989 0.336914 4.53324 0.336914 2.91927 0.776006C2.05281 1.02164 1.33916 1.75918 1.10149 2.67223C0.676758 4.34013 0.676758 7.79913 0.676758 7.79913C0.676758 7.79913 0.676758 11.2756 1.10149 12.926C1.33942 13.8391 2.03581 14.5589 2.9194 14.8048C4.55024 15.2613 10.9893 15.2613 10.9893 15.2613C10.9893 15.2613 17.445 15.2613 19.059 14.8223C19.9426 14.5765 20.6391 13.8566 20.877 12.9436C21.3016 11.2756 21.3016 7.8167 21.3016 7.8167C21.3016 7.8167 21.3186 4.34013 20.8768 2.67223ZM8.93355 10.9947V4.60358L14.302 7.79913L8.93355 10.9947Z" fill="#9E9E9E"/>
</svg>
