<svg width="48" height="48" viewBox="0 0 48 48" fill="none" xmlns="http://www.w3.org/2000/svg">
<path d="M40.9706 7.02942C36.4376 2.49646 30.4105 0 24 0C17.5895 0 11.5624 2.49646 7.02942 7.02942C6.38452 7.67432 5.78247 8.35034 5.22144 9.05237L5.21265 9.05017C5.21045 9.05676 5.20898 9.06372 5.20715 9.07031C1.83325 13.3004 0 18.509 0 24C0 30.4105 2.49646 36.4376 7.02942 40.9706C11.5624 45.5035 17.5895 48 24 48C30.4105 48 36.4376 45.5035 40.9706 40.9706C45.5035 36.4376 48 30.4105 48 24C48 17.5895 45.5035 11.5624 40.9706 7.02942ZM24 3.75C26.3555 3.75 28.6176 4.1554 30.7218 4.89807C30.6914 5.53235 30.6259 6.13806 30.4757 6.70422C30.2432 7.5802 29.7979 8.2749 29.2533 8.61035C28.8256 8.87402 28.1957 9.01831 27.5288 9.17102C27.4087 9.19849 27.2886 9.22595 27.1696 9.25415C25.4755 9.65405 21.5079 10.5912 19.9852 14.8356C19.8691 15.1586 19.1554 15.475 18.4647 15.7811C17.3976 16.2543 16.0697 16.8428 15.2238 18.1392C14.4928 19.2587 14.0024 20.5642 13.7886 21.8789C11.8586 20.1189 10.4897 18.3761 9.61633 16.5663C8.64514 14.5536 8.32214 12.6196 8.651 10.8062C12.3673 6.48853 17.8696 3.75 24 3.75ZM36.2955 36.3395C36.0564 37.0961 35.3287 39.3992 34.6351 40.5773C34.5571 40.7065 34.2191 41.1925 33.8789 41.6711C31.9486 42.7544 29.8246 43.5319 27.5717 43.9347C27.3878 42.7745 27.1245 41.5327 26.6591 40.3352C25.9149 38.4188 24.7467 36.895 23.2819 35.9286C22.8636 35.6528 22.4355 35.432 22.058 35.2375C21.5914 34.9969 21.1509 34.7699 20.8737 34.5121C20.413 34.0833 20.1002 33.2838 19.9182 32.0687C19.875 31.782 19.8387 31.4894 19.8007 31.1799C19.7545 30.8079 19.7058 30.4175 19.6421 30.0179C20.7188 30 23.1083 29.6305 24.2333 29.1141C24.6119 28.9402 24.9459 28.7406 25.2407 28.5648C25.4901 28.4158 25.7256 28.2751 25.9292 28.1865C27.2567 27.6072 28.9849 28.585 29.7052 29.8253C29.8206 30.0242 29.9355 30.2545 30.0575 30.4984C30.4845 31.3535 31.0155 32.4177 32.0984 33.1447C33.3223 33.9661 34.5509 33.9207 35.3639 33.8906C36.0333 33.8661 36.1864 33.8826 36.33 33.9965C36.6035 34.2129 36.6848 35.1075 36.2955 36.3395ZM3.75 24C3.75 21.1729 4.33337 18.4797 5.3844 16.0331C5.60779 16.7552 5.89233 17.4774 6.23914 18.1963C7.41284 20.6279 9.2428 22.9061 11.8345 25.1613C12.0593 25.3568 12.2882 25.5516 12.5178 25.7468C13.8241 26.8575 15.0575 27.9064 15.5819 29.2009C15.8632 29.896 15.9679 30.7434 16.0792 31.6403C16.1188 31.96 16.1594 32.2903 16.2096 32.6243C16.4092 33.9562 16.8453 35.8857 18.3197 37.2576C18.9745 37.8666 19.7 38.2405 20.3397 38.5708C20.6624 38.7367 20.9667 38.8938 21.2172 39.059C22.2433 39.7361 22.842 40.8651 23.1639 41.6931C23.4781 42.5017 23.6755 43.3737 23.8235 44.2478C12.7386 44.1526 3.75 35.1068 3.75 24ZM40.1957 36.1421C40.5685 33.9576 40.0342 32.1453 38.6569 31.0554C37.4019 30.0626 36.0923 30.1113 35.2255 30.1432C34.6271 30.1652 34.3824 30.1615 34.1884 30.0308C33.928 29.8564 33.6661 29.3313 33.4127 28.8237C33.2703 28.5381 33.1227 28.2433 32.9476 27.9415C32.139 26.5496 30.8617 25.4352 29.3503 24.8031C27.6896 24.1088 25.942 24.0894 24.4296 24.7493C24.0077 24.9335 23.6415 25.1521 23.3185 25.3451C23.0845 25.4846 22.8633 25.6168 22.6688 25.7058C22.0906 25.9713 19.4059 26.4379 18.4417 26.2939C18.2091 26.1749 17.8077 25.738 17.4935 24.1897C17.2504 22.9915 17.6082 21.3464 18.3636 20.1892C18.6035 19.8215 19.3055 19.5106 19.9841 19.2096C21.1967 18.6724 22.8567 17.9363 23.5148 16.1019C24.2856 13.953 26.1687 13.3436 28.0309 12.9038C28.1422 12.8778 28.2535 12.8522 28.3652 12.8265C29.2559 12.6226 30.2651 12.3915 31.2198 11.8037C32.5939 10.957 33.6167 9.48779 34.1001 7.66589C34.1957 7.30591 34.2678 6.94482 34.3228 6.58557C40.2616 10.1191 44.25 16.6022 44.25 24C44.25 28.5513 42.7401 32.7565 40.1957 36.1421Z" fill="#090909"/>
</svg>
