<svg width="28" height="27" viewBox="0 0 28 27" fill="none" xmlns="http://www.w3.org/2000/svg">
<path d="M8.56576 22.3066H4.81842V10.3887H8.56576V22.3066ZM8.93966 6.59159C8.93966 5.39827 7.95682 4.42969 6.74604 4.42969C5.53067 4.42969 4.55034 5.39827 4.55034 6.59159C4.55034 7.78532 5.53067 8.75391 6.74604 8.75391C7.95682 8.75391 8.93966 7.78532 8.93966 6.59159ZM22.5911 15.7499C22.5911 12.5506 21.905 10.1777 18.111 10.1777C16.2879 10.1777 15.0642 11.0759 14.5646 12.0098H14.5611V10.3887H10.9208V22.3066H14.5611V16.3893C14.5611 14.8396 14.9615 13.3383 16.9115 13.3383C18.835 13.3383 18.8973 15.1105 18.8973 16.4877V22.3066H22.5911V15.7499ZM27.4091 23.8359V3.16406C27.4091 1.4193 25.9683 0 24.1971 0H3.212C1.4408 0 0 1.4193 0 3.16406V23.8359C0 25.5807 1.4408 27 3.212 27H24.1971C25.9683 27 27.4091 25.5807 27.4091 23.8359ZM24.1971 2.10938C24.7874 2.10938 25.2678 2.58254 25.2678 3.16406V23.8359C25.2678 24.4175 24.7874 24.8906 24.1971 24.8906H3.212C2.62167 24.8906 2.14134 24.4175 2.14134 23.8359V3.16406C2.14134 2.58254 2.62167 2.10938 3.212 2.10938H24.1971Z" fill="white" fill-opacity="0.9"/>
</svg>
