<svg width="48" height="48" viewBox="0 0 48 48" fill="none" xmlns="http://www.w3.org/2000/svg">
<path d="M46.7867 1.20595C45.4204 -0.16038 43.1766 -0.370219 40.2979 0.599141C38.2529 1.28762 36.1747 2.48915 35.0032 3.66066L34.9955 3.66835C34.9395 3.72548 32.2676 6.42848 29.0731 9.6559C25.5439 12.505 20.2104 12.5662 15.4669 12.6193C13.849 12.6372 12.3208 12.6544 10.8922 12.7746C8.04126 13.0141 5.3584 14.2588 3.33765 16.2796L2.3335 17.2837L9.25928 29.5906L6.9408 31.8571L16.2001 41.1163L18.4896 38.8784L30.8097 45.7584L31.9603 44.6078C34.0254 42.5427 35.2745 39.8024 35.4778 36.8914C35.5613 35.6924 35.5953 34.3942 35.6309 33.0198C35.7656 27.8683 35.9341 21.4669 39.0901 18.2278C42.0132 15.3065 44.3317 12.9892 44.332 12.9892C45.5032 11.8176 46.7051 9.73976 47.3936 7.69484C48.3629 4.81606 48.1531 2.57228 46.7867 1.20595ZM41.3804 4.18581C43.2037 3.55007 44.0336 3.76723 44.1376 3.85146C44.2251 3.95912 44.4426 4.78896 43.8069 6.61232C43.5308 7.40407 43.1671 8.16249 42.7947 8.80446L39.1882 5.19802C39.8302 4.82558 40.5886 4.46193 41.3804 4.18581ZM12.2659 31.8875L15.015 29.2006L15.03 29.1856C15.5596 28.656 16.2634 28.3645 17.0123 28.3645C17.7612 28.3645 18.4651 28.656 18.9946 29.1856C19.5242 29.7147 19.8157 30.419 19.8157 31.1675C19.8157 31.9131 19.5264 32.6144 19.0012 33.1432L16.2301 35.8517L12.2659 31.8875ZM31.8882 32.9224C31.8534 34.2546 31.8208 35.5137 31.7428 36.631C31.63 38.2456 31.051 39.7848 30.0879 41.0673L21.2816 36.1494L21.6266 35.8125L21.642 35.7975C22.8783 34.5608 23.5594 32.9165 23.5594 31.1679C23.5594 29.4188 22.8783 27.7745 21.642 26.5382C20.4053 25.3015 18.761 24.6204 17.0123 24.6204C15.2673 24.6204 13.6263 25.2986 12.3907 26.5302L12.0311 26.8817L7.04846 18.0282C8.26501 17.1629 9.70129 16.6318 11.2057 16.5055C12.4988 16.3971 13.9611 16.3806 15.509 16.363C17.8041 16.3374 20.3331 16.3088 22.8329 15.954C21.4233 17.3742 20.1936 18.6109 19.3605 19.444L22.0082 22.0913C23.9572 20.142 35.3756 8.60927 36.3347 7.63954L40.3605 11.6653C39.4178 12.6072 28.2751 23.7448 26.0669 25.9526L28.7146 28.6003C29.6353 27.6793 30.9525 26.3624 32.436 24.8793C32.0277 27.5885 31.9545 30.3893 31.8882 32.9224ZM10.2891 40.452L2.74109 48L0.09375 45.3527L7.64172 37.8047L10.2891 40.452ZM12.3215 42.672L14.9689 45.3193L12.2886 48L9.64087 45.3527L12.3215 42.672ZM5.51697 35.8601L2.83301 38.5444L0.185303 35.8971L2.86963 33.2128L5.51697 35.8601Z" fill="#090909"/>
</svg>
