<svg width="28" height="27" viewBox="0 0 28 27" fill="none" xmlns="http://www.w3.org/2000/svg">
<path d="M13.7028 0.281006C6.13621 0.281006 0 6.34926 0 13.835C0 19.8223 3.92635 24.9016 9.37391 26.6954C10.0591 26.8203 10.3092 26.4018 10.3092 26.0424C10.3092 25.7201 10.2973 24.8679 10.2904 23.7373C6.47882 24.5557 5.67368 21.9198 5.67368 21.9198C5.05184 20.3538 4.15248 19.937 4.15248 19.937C2.90708 19.0966 4.24498 19.1135 4.24498 19.1135C5.62058 19.2097 6.34349 20.5108 6.34349 20.5108C7.56662 22.5813 9.55207 21.9839 10.3332 21.6363C10.4566 20.7605 10.8112 20.1631 11.2035 19.8239C8.16106 19.4814 4.96105 18.3187 4.96105 13.1263C4.96105 11.6463 5.49552 10.4364 6.37261 9.48801C6.23043 9.14544 5.76105 7.76676 6.50623 5.90207C6.50623 5.90207 7.65741 5.53757 10.275 7.29088C11.3679 6.99051 12.5397 6.84032 13.7063 6.83526C14.8694 6.84201 16.0429 6.99051 17.1375 7.29257C19.7534 5.53926 20.9029 5.90376 20.9029 5.90376C21.6498 7.77013 21.1804 9.14713 21.0399 9.48969C21.9187 10.4381 22.448 11.648 22.448 13.1279C22.448 18.3339 19.2446 19.4797 16.1919 19.8155C16.6836 20.234 17.1221 21.0609 17.1221 22.3248C17.1221 24.1372 17.105 25.5986 17.105 26.0424C17.105 26.4052 17.3517 26.8271 18.0472 26.6938C23.4862 24.8983 27.4091 19.8206 27.4091 13.835C27.4091 6.34926 21.2729 0.281006 13.7028 0.281006Z" fill="white" fill-opacity="0.9"/>
</svg>
