<svg width="48" height="48" viewBox="0 0 48 48" fill="none" xmlns="http://www.w3.org/2000/svg">
<path d="M25.9475 19.5234C25.9475 20.5583 25.1085 21.3969 24.0739 21.3969C23.0394 21.3969 22.2004 20.5583 22.2004 19.5234C22.2004 18.4889 23.0394 17.6502 24.0739 17.6502C25.1085 17.6502 25.9475 18.4889 25.9475 19.5234ZM24.0739 24.2072C23.0394 24.2072 22.2004 25.0458 22.2004 26.0808C22.2004 27.1153 23.0394 27.9539 24.0739 27.9539C25.1085 27.9539 25.9475 27.1153 25.9475 26.0808C25.9475 25.0458 25.1085 24.2072 24.0739 24.2072ZM24.0739 30.7642C23.0394 30.7642 22.2004 31.6028 22.2004 32.6378C22.2004 33.6723 23.0394 34.5113 24.0739 34.5113C25.1085 34.5113 25.9475 33.6723 25.9475 32.6378C25.9475 31.6028 25.1085 30.7642 24.0739 30.7642ZM47.9604 15.8705V19.6171C44.7578 19.6171 42.1526 22.2224 42.1526 25.4249C42.1526 26.1137 42.3394 26.8538 42.74 27.7543L43.2637 28.9306L41.3927 30.8012L40.2513 30.3541C39.4976 30.0589 38.8813 29.9212 38.3118 29.9212C36.6943 29.9212 35.24 30.6203 34.2436 31.7266C36.3028 32.7491 37.9936 34.0865 40.2029 36.6642L41.2239 37.8555L32.9238 47.9999H29.132V41.9113H18.828V47.9999H15.0366L6.74156 37.8614L7.75157 36.6712C9.7368 34.3315 11.6722 32.8897 13.7739 31.7914C12.7763 30.6478 11.2976 29.9212 9.64854 29.9212C9.07908 29.9212 8.46275 30.0585 7.70909 30.3541L6.56761 30.8012L4.69665 28.9302L5.22033 27.754C5.62096 26.8538 5.80773 26.1137 5.80773 25.4249C5.80773 22.2224 3.20251 19.6171 0 19.6171V15.8701C5.2683 15.8701 9.55479 20.1562 9.55479 25.4249C9.55479 25.6746 9.54271 25.9244 9.51854 26.1752C9.56175 26.1745 9.60496 26.1741 9.64817 26.1741C11.6228 26.1741 13.5095 26.7974 15.0813 27.9499V17.8344C15.0813 10.7234 22.1978 2.0863 22.5007 1.72192L23.9329 0L25.3747 1.71386C25.6812 2.07824 32.8791 10.7179 32.8791 17.8344V27.9499C34.4509 26.7974 36.3376 26.1741 38.3122 26.1741C38.3554 26.1741 38.3986 26.1745 38.4418 26.1756C38.4176 25.9244 38.4059 25.675 38.4059 25.4249C38.4059 20.1566 42.6921 15.8705 47.9604 15.8705ZM15.0813 35.3466C13.8882 36.0146 12.7752 36.8276 11.6565 37.9518L15.0813 42.1376V35.3466ZM18.8283 38.1642H29.1324V17.8344C29.1324 14.0343 26.1152 9.00474 23.9509 5.99852C21.81 9.0106 18.8283 14.0434 18.8283 17.8344V38.1642ZM32.8791 35.2375V42.1376L36.3145 37.939C35.1097 36.6675 34.0967 35.8816 32.8791 35.2375ZM40.9991 44.047L37.7651 47.9999H39.7408C41.938 47.9724 44.0005 47.1056 45.5481 45.5595C47.1038 44.0053 47.9604 41.9446 47.9604 39.7569H44.2133C44.2133 41.7589 42.8568 43.4721 40.9991 44.047ZM3.74706 39.7569H0C0 41.9446 0.856932 44.0053 2.41223 45.5595C3.95983 47.1056 6.02269 47.9721 8.21995 47.9999H10.1953L6.96129 44.047C5.10351 43.4721 3.74706 41.7589 3.74706 39.7569Z" fill="#090909"/>
</svg>
