<svg width="48" height="48" viewBox="0 0 48 48" fill="none" xmlns="http://www.w3.org/2000/svg">
<path d="M40.8907 27.5134C36.8328 23.4554 31.5754 21.0344 25.9182 20.5781V14.5093H40.7197L36.0015 7.37109L40.6208 0H22.1755V20.5624C16.4469 20.9799 11.1182 23.4108 7.0155 27.5134C2.4917 32.0376 0 38.0526 0 44.4507V48H3.74268V44.4507C3.74268 33.3065 12.809 24.2402 23.9531 24.2402C35.0973 24.2402 44.1636 33.3065 44.1636 44.4507V48H47.9062V44.4507C47.9062 38.0526 45.4149 32.0376 40.8907 27.5134ZM25.9182 3.74268H33.8588L31.5509 7.42529L33.7595 10.7666H25.9182V3.74268ZM31.2513 31.9065C31.2513 33.4567 29.9949 34.7135 28.4443 34.7135C26.8942 34.7135 25.6373 33.4567 25.6373 31.9065C25.6373 30.356 26.8942 29.0995 28.4443 29.0995C29.9949 29.0995 31.2513 30.356 31.2513 31.9065ZM26.0116 45.193C26.0116 46.7432 24.7551 48 23.2046 48C21.6544 48 20.3976 46.7432 20.3976 45.193C20.3976 43.6428 21.6544 42.386 23.2046 42.386C24.7551 42.386 26.0116 43.6428 26.0116 45.193ZM18.8071 35.9297C18.8071 37.9969 17.1313 39.6724 15.0645 39.6724C12.9972 39.6724 11.3218 37.9969 11.3218 35.9297C11.3218 33.8628 12.9972 32.187 15.0645 32.187C17.1313 32.187 18.8071 33.8628 18.8071 35.9297ZM37.3334 39.9532C37.3334 40.9867 36.4955 41.8246 35.462 41.8246C34.4286 41.8246 33.5907 40.9867 33.5907 39.9532C33.5907 38.9198 34.4286 38.0819 35.462 38.0819C36.4955 38.0819 37.3334 38.9198 37.3334 39.9532Z" fill="#090909"/>
</svg>
