<svg width="48" height="46" viewBox="0 0 48 46" fill="none" xmlns="http://www.w3.org/2000/svg">
<path d="M48 18.8267C48 16.8422 46.5341 15.1554 43.6428 13.8125C41.7382 12.9277 39.1893 12.1862 36.208 11.6423C35.5452 5.49219 30.3234 0.6875 24 0.6875C17.677 0.6875 12.4556 5.49146 11.792 11.6412C8.76086 12.1942 6.17761 12.953 4.26379 13.8564C1.43445 15.1917 0 16.8641 0 18.8267C0 18.8673 0.00109864 18.9091 0.00219727 18.9515C0.0523682 21.299 1.51538 24.0338 4.35388 27.0829C6.22668 29.0945 8.08081 30.5809 8.38513 30.8208C9.97559 32.1912 11.799 33.1862 14.053 33.8611L10.9709 39.8571C9.73315 40.1519 8.8125 41.2644 8.8125 42.5923C8.8125 44.1458 10.0715 45.4048 11.625 45.4048C13.1785 45.4048 14.4375 44.1458 14.4375 42.5923C14.4375 42.2576 14.3785 41.9364 14.2716 41.6387L17.8638 34.6499C19.1067 34.8136 20.4576 34.918 21.9375 34.9663V40.4965C21.3622 41.0114 21 41.7595 21 42.5923C21 44.1458 22.259 45.4048 23.8125 45.4048C25.366 45.4048 26.625 44.1458 26.625 42.5923C26.625 41.7595 26.2628 41.0114 25.6875 40.4965V34.9766C27.3109 34.9341 28.7889 34.8282 30.1381 34.6539L33.7284 41.639C33.6211 41.9368 33.5625 42.2576 33.5625 42.5923C33.5625 44.1458 34.8215 45.4048 36.375 45.4048C37.9285 45.4048 39.1875 44.1458 39.1875 42.5923C39.1875 41.2644 38.2668 40.1522 37.0291 39.8571L33.958 33.8823C36.2933 33.1997 38.1328 32.1875 39.6412 30.8003C40.0133 30.5051 41.8209 29.0432 43.6461 27.0829C46.4846 24.0338 47.9476 21.2993 47.9978 18.9515C47.9989 18.9091 48 18.8673 48 18.8267ZM15.4702 12.9673C15.4702 8.26404 19.2968 4.4375 24 4.4375C28.7032 4.4375 32.5298 8.26404 32.5298 12.9673V15.1565C27.3842 16.369 20.5386 16.3712 15.4702 15.1624V12.9673ZM6.03662 17.1677C7.49377 16.5052 9.43542 15.9285 11.7202 15.4729V17.9895L13.0518 18.3927C16.0756 19.3082 19.9365 19.811 23.9363 19.811C23.9755 19.811 24.015 19.811 24.0546 19.8107C28.0345 19.8011 31.8999 19.2983 34.9387 18.3956L36.2798 17.9972V15.4722C38.5243 15.9197 40.437 16.4847 41.8887 17.134C43.7798 17.9796 44.2324 18.686 44.2504 18.8241C44.2181 19.0826 43.1613 20.3842 38.8795 21.5685C34.8911 22.6719 29.6067 23.2794 24 23.2794C18.3937 23.2794 13.1093 22.6719 9.12048 21.5685C4.84387 20.3856 3.78479 19.0859 3.75037 18.83C3.75037 18.8292 3.75037 18.8285 3.75037 18.8278C3.76904 18.6871 4.20959 17.9983 6.03662 17.1677ZM37.27 27.8944L37.2048 27.9449L37.144 28.0017C35.5214 29.5134 32.5609 31.2485 24 31.2485C15.7412 31.2485 12.7778 29.6665 10.8058 27.9567L10.73 27.894C9.88953 27.2396 8.71948 26.2073 7.5769 25.027C7.66406 25.0526 7.75085 25.0786 7.83948 25.1039C12.1813 26.3457 17.9205 27.0298 24 27.0298C30.0791 27.0298 35.8184 26.3457 40.1602 25.1039C40.2502 25.0782 40.3378 25.0522 40.426 25.0259C38.8011 26.694 37.2861 27.882 37.27 27.8944ZM24 11.561C23.2247 11.561 22.5938 12.192 22.5938 12.9673H18.8438C18.8438 10.124 21.1567 7.81104 24 7.81104V11.561Z" fill="#090909"/>
</svg>
